# xmcd CD database file
#
# Track frame offsets:
#	150
#	21028
#	42412
#	64215
#	86024
#
# Disc length: 1479 seconds
#
# Revision: 0
# Processed by: cddbd v1.5.2PL0 Copyright (c) Steve Scherf et al.
# Submitted via: CDex 1.70beta3
#
DISCID=3b05c505
DTITLE=Oscar Peterson - The Cool Jazz Collection 56
DYEAR=2010
DGENRE=Jazz
TTITLE0=Tonight
TTITLE1=Alice in Wonderland
TTITLE2=Exactly Like You
TTITLE3=Love Is Here to Stay
TTITLE4=Hymn to Freedom
EXTD=YEAR: 2010
EXTT0=
EXTT1=
EXTT2=
EXTT3=
EXTT4=
PLAYORDER=
